<?xml version="1.0" encoding="UTF-8"?><svg id="Capa_1" xmlns="http://www.w3.org/2000/svg" viewBox="0 0 750 500"><rect x="66.28" y="63.52" width="589.22" height="101.25"/><rect x="66.28" y="355.09" width="589.22" height="101.25"/><path d="M154.54,237.41c1.2-1.2,14.39,2.47,16.86-2.81.32-6.73-42.3-28.27-5.68-39.54,4.46-1.37,24.63-4.11,26.51-5.41,1.83-1.26,6.02-24.77,9.38.69,8.74.6,33.97,3.93,39.39,10.38,12.61,15.01-17.01,25.58-16.99,35.74l16.92.96v26.29l11.38-3.03c2.04-7.29-3.26-14.05-3.45-18.93-.1-2.55,4.43-6.96,1.44-11.84,7.52,2.69,6.87-4.47,10.33-3.78,1.05,4.75,5.76,3.51,7.62,5.63,2.46,2.81-2.92,26.3-1.14,32.67.38,1.36,21.4,6.25.04,19.04-1.19,6.69,6.72,5.58,7.7,11.27,1.63,9.49-7.2,8.21-7.79,13.07-1.44,11.68,7.91,15.94,5.81,27.27h-26.29c.49-15.62,7.86-25.49,5.79-42.33-.48-3.88-14.32-10.52-.16-19.63l-11.27-.02v42.26c0,.66-5.26,9.15-6.48,10.42-14.49,15.22-63.1,15.08-75.15-2.05-.91-1.3-4.77-9.58-4.77-10.26v-40.38l-11.23.94c1.19,1.92,5.1,2.04,5.64,4.13,2.76,10.77-5.22,11.23-5.72,13.14-.69,2.65-.42,15.11,0,18.46,2.64,21.14,24.05,27.04-19.53,25.35-4.42-10.7,8.37-17.26,4.54-30.1l-3.44,1.6-4.18-11.86c.79-5.61,8.92-4.56,7.73-11.29-10.91-5.72-13.91-15.16.04-19.04l-1.77-33.31c3.41-1.76,9.06-8.03,10.91-6.68.52.38-.31,5.55,7.39,3.77,3.16,3.53-.91,6.93-.82,8.23.1,1.58,2.61,3.07,2.57,5.33-.09,4.57-6.22,13.24-3.13,19.86l11.04,2.09v-26.29Z"/></svg>