<?xml version="1.0" encoding="UTF-8"?><svg id="Capa_1" xmlns="http://www.w3.org/2000/svg" viewBox="0 0 621.78 374.47"><defs><style>.cls-1{fill:#fff;}</style></defs><rect width="283.83" height="201.44"/><rect x="282.17" width="339.61" height="28.4"/><rect x="282.17" y="57.68" width="339.61" height="28.4"/><rect x="282.17" y="115.36" width="339.61" height="28.4"/><rect x="282.17" y="173.04" width="339.61" height="28.4"/><rect x=".69" y="230.71" width="621.08" height="28.4"/><rect x=".69" y="288.39" width="621.08" height="28.4"/><rect x=".69" y="346.07" width="621.08" height="28.4"/><polygon class="cls-1" points="27.41 8.22 31.15 19.7 43.22 19.7 33.45 26.8 37.18 38.28 27.41 31.19 17.64 38.28 21.38 26.8 11.61 19.7 23.68 19.7 27.41 8.22"/><polygon class="cls-1" points="69.93 8.22 73.66 19.7 85.74 19.7 75.97 26.8 79.7 38.28 69.93 31.19 60.16 38.28 63.89 26.8 54.12 19.7 66.2 19.7 69.93 8.22"/><polygon class="cls-1" points="112.77 8.22 116.5 19.7 128.57 19.7 118.81 26.8 122.54 38.28 112.77 31.19 103 38.28 106.73 26.8 96.96 19.7 109.04 19.7 112.77 8.22"/><polygon class="cls-1" points="156.09 8.22 159.82 19.7 171.9 19.7 162.13 26.8 165.86 38.28 156.09 31.19 146.32 38.28 150.05 26.8 140.28 19.7 152.36 19.7 156.09 8.22"/><polygon class="cls-1" points="198.6 8.22 202.33 19.7 214.41 19.7 204.64 26.8 208.37 38.28 198.6 31.19 188.83 38.28 192.56 26.8 182.79 19.7 194.87 19.7 198.6 8.22"/><polygon class="cls-1" points="241.44 8.22 245.17 19.7 257.25 19.7 247.48 26.8 251.21 38.28 241.44 31.19 231.67 38.28 235.4 26.8 225.63 19.7 237.71 19.7 241.44 8.22"/><polygon class="cls-1" points="27.41 44.44 31.15 55.93 43.22 55.93 33.45 63.02 37.18 74.51 27.41 67.41 17.64 74.51 21.38 63.02 11.61 55.93 23.68 55.93 27.41 44.44"/><polygon class="cls-1" points="69.93 44.44 73.66 55.93 85.74 55.93 75.97 63.02 79.7 74.51 69.93 67.41 60.16 74.51 63.89 63.02 54.12 55.93 66.2 55.93 69.93 44.44"/><polygon class="cls-1" points="112.77 44.44 116.5 55.93 128.57 55.93 118.81 63.02 122.54 74.51 112.77 67.41 103 74.51 106.73 63.02 96.96 55.93 109.04 55.93 112.77 44.44"/><polygon class="cls-1" points="156.09 44.44 159.82 55.93 171.9 55.93 162.13 63.02 165.86 74.51 156.09 67.41 146.32 74.51 150.05 63.02 140.28 55.93 152.36 55.93 156.09 44.44"/><polygon class="cls-1" points="198.6 44.44 202.33 55.93 214.41 55.93 204.64 63.02 208.37 74.51 198.6 67.41 188.83 74.51 192.56 63.02 182.79 55.93 194.87 55.93 198.6 44.44"/><polygon class="cls-1" points="241.44 44.44 245.17 55.93 257.25 55.93 247.48 63.02 251.21 74.51 241.44 67.41 231.67 74.51 235.4 63.02 225.63 55.93 237.71 55.93 241.44 44.44"/><polygon class="cls-1" points="27.24 80.67 30.97 92.15 43.04 92.15 33.27 99.25 37.01 110.73 27.24 103.64 17.47 110.73 21.2 99.25 11.43 92.15 23.5 92.15 27.24 80.67"/><polygon class="cls-1" points="69.75 80.67 73.48 92.15 85.56 92.15 75.79 99.25 79.52 110.73 69.75 103.64 59.98 110.73 63.71 99.25 53.94 92.15 66.02 92.15 69.75 80.67"/><polygon class="cls-1" points="112.59 80.67 116.32 92.15 128.4 92.15 118.63 99.25 122.36 110.73 112.59 103.64 102.82 110.73 106.55 99.25 96.78 92.15 108.86 92.15 112.59 80.67"/><polygon class="cls-1" points="155.91 80.67 159.64 92.15 171.72 92.15 161.95 99.25 165.68 110.73 155.91 103.64 146.14 110.73 149.87 99.25 140.1 92.15 152.18 92.15 155.91 80.67"/><polygon class="cls-1" points="198.42 80.67 202.16 92.15 214.23 92.15 204.46 99.25 208.19 110.73 198.42 103.64 188.65 110.73 192.39 99.25 182.62 92.15 194.69 92.15 198.42 80.67"/><polygon class="cls-1" points="241.26 80.67 244.99 92.15 257.07 92.15 247.3 99.25 251.03 110.73 241.26 103.64 231.49 110.73 235.22 99.25 225.45 92.15 237.53 92.15 241.26 80.67"/><polygon class="cls-1" points="27.24 116.89 30.97 128.38 43.04 128.38 33.27 135.47 37.01 146.96 27.24 139.86 17.47 146.96 21.2 135.47 11.43 128.38 23.5 128.38 27.24 116.89"/><polygon class="cls-1" points="69.75 116.89 73.48 128.38 85.56 128.38 75.79 135.47 79.52 146.96 69.75 139.86 59.98 146.96 63.71 135.47 53.94 128.38 66.02 128.38 69.75 116.89"/><polygon class="cls-1" points="112.59 116.89 116.32 128.38 128.4 128.38 118.63 135.47 122.36 146.96 112.59 139.86 102.82 146.96 106.55 135.47 96.78 128.38 108.86 128.38 112.59 116.89"/><polygon class="cls-1" points="155.91 116.89 159.64 128.38 171.72 128.38 161.95 135.47 165.68 146.96 155.91 139.86 146.14 146.96 149.87 135.47 140.1 128.38 152.18 128.38 155.91 116.89"/><polygon class="cls-1" points="198.42 116.89 202.16 128.38 214.23 128.38 204.46 135.47 208.19 146.96 198.42 139.86 188.65 146.96 192.39 135.47 182.62 128.38 194.69 128.38 198.42 116.89"/><polygon class="cls-1" points="241.26 116.89 244.99 128.38 257.07 128.38 247.3 135.47 251.03 146.96 241.26 139.86 231.49 146.96 235.22 135.47 225.45 128.38 237.53 128.38 241.26 116.89"/><polygon class="cls-1" points="26.86 153.12 30.59 164.6 42.67 164.6 32.9 171.7 36.63 183.18 26.86 176.09 17.09 183.18 20.82 171.7 11.05 164.6 23.13 164.6 26.86 153.12"/><polygon class="cls-1" points="69.37 153.12 73.1 164.6 85.18 164.6 75.41 171.7 79.14 183.18 69.37 176.09 59.6 183.18 63.33 171.7 53.56 164.6 65.64 164.6 69.37 153.12"/><polygon class="cls-1" points="112.21 153.12 115.94 164.6 128.02 164.6 118.25 171.7 121.98 183.18 112.21 176.09 102.44 183.18 106.17 171.7 96.4 164.6 108.48 164.6 112.21 153.12"/><polygon class="cls-1" points="155.53 153.12 159.26 164.6 171.34 164.6 161.57 171.7 165.3 183.18 155.53 176.09 145.76 183.18 149.49 171.7 139.72 164.6 151.8 164.6 155.53 153.12"/><polygon class="cls-1" points="198.05 153.12 201.78 164.6 213.85 164.6 204.08 171.7 207.82 183.18 198.05 176.09 188.28 183.18 192.01 171.7 182.24 164.6 194.31 164.6 198.05 153.12"/><polygon class="cls-1" points="47.88 133.51 51.62 145 63.69 145 53.92 152.1 57.65 163.58 47.88 156.48 38.11 163.58 41.85 152.1 32.08 145 44.15 145 47.88 133.51"/><polygon class="cls-1" points="90.4 133.51 94.13 145 106.21 145 96.44 152.1 100.17 163.58 90.4 156.48 80.63 163.58 84.36 152.1 74.59 145 86.67 145 90.4 133.51"/><polygon class="cls-1" points="133.24 133.51 136.97 145 149.05 145 139.28 152.1 143.01 163.58 133.24 156.48 123.47 163.58 127.2 152.1 117.43 145 129.51 145 133.24 133.51"/><polygon class="cls-1" points="176.56 133.51 180.29 145 192.37 145 182.6 152.1 186.33 163.58 176.56 156.48 166.79 163.58 170.52 152.1 160.75 145 172.83 145 176.56 133.51"/><polygon class="cls-1" points="219.07 133.51 222.8 145 234.88 145 225.11 152.1 228.84 163.58 219.07 156.48 209.3 163.58 213.03 152.1 203.26 145 215.34 145 219.07 133.51"/><polygon class="cls-1" points="48.48 98.43 52.22 109.91 64.29 109.91 54.52 117.01 58.25 128.5 48.48 121.4 38.71 128.5 42.45 117.01 32.68 109.91 44.75 109.91 48.48 98.43"/><polygon class="cls-1" points="91 98.43 94.73 109.91 106.81 109.91 97.04 117.01 100.77 128.5 91 121.4 81.23 128.5 84.96 117.01 75.19 109.91 87.27 109.91 91 98.43"/><polygon class="cls-1" points="133.84 98.43 137.57 109.91 149.65 109.91 139.88 117.01 143.61 128.5 133.84 121.4 124.07 128.5 127.8 117.01 118.03 109.91 130.11 109.91 133.84 98.43"/><polygon class="cls-1" points="177.16 98.43 180.89 109.91 192.97 109.91 183.2 117.01 186.93 128.5 177.16 121.4 167.39 128.5 171.12 117.01 161.35 109.91 173.43 109.91 177.16 98.43"/><polygon class="cls-1" points="219.67 98.43 223.4 109.91 235.48 109.91 225.71 117.01 229.44 128.5 219.67 121.4 209.9 128.5 213.63 117.01 203.86 109.91 215.94 109.91 219.67 98.43"/><polygon class="cls-1" points="48.24 62.55 51.97 74.04 64.05 74.04 54.28 81.14 58.01 92.62 48.24 85.52 38.47 92.62 42.21 81.14 32.44 74.04 44.51 74.04 48.24 62.55"/><polygon class="cls-1" points="90.76 62.55 94.49 74.04 106.57 74.04 96.8 81.14 100.53 92.62 90.76 85.52 80.99 92.62 84.72 81.14 74.95 74.04 87.03 74.04 90.76 62.55"/><polygon class="cls-1" points="133.6 62.55 137.33 74.04 149.4 74.04 139.63 81.14 143.37 92.62 133.6 85.52 123.83 92.62 127.56 81.14 117.79 74.04 129.86 74.04 133.6 62.55"/><polygon class="cls-1" points="176.92 62.55 180.65 74.04 192.73 74.04 182.96 81.14 186.69 92.62 176.92 85.52 167.15 92.62 170.88 81.14 161.11 74.04 173.19 74.04 176.92 62.55"/><polygon class="cls-1" points="219.43 62.55 223.16 74.04 235.24 74.04 225.47 81.14 229.2 92.62 219.43 85.52 209.66 92.62 213.39 81.14 203.62 74.04 215.7 74.04 219.43 62.55"/><polygon class="cls-1" points="47.64 26.68 51.37 38.16 63.45 38.16 53.68 45.26 57.41 56.75 47.64 49.65 37.87 56.75 41.61 45.26 31.84 38.16 43.91 38.16 47.64 26.68"/><polygon class="cls-1" points="90.16 26.68 93.89 38.16 105.97 38.16 96.2 45.26 99.93 56.75 90.16 49.65 80.39 56.75 84.12 45.26 74.35 38.16 86.43 38.16 90.16 26.68"/><polygon class="cls-1" points="133 26.68 136.73 38.16 148.8 38.16 139.03 45.26 142.77 56.75 133 49.65 123.23 56.75 126.96 45.26 117.19 38.16 129.26 38.16 133 26.68"/><polygon class="cls-1" points="176.32 26.68 180.05 38.16 192.13 38.16 182.36 45.26 186.09 56.75 176.32 49.65 166.55 56.75 170.28 45.26 160.51 38.16 172.59 38.16 176.32 26.68"/><polygon class="cls-1" points="218.83 26.68 222.56 38.16 234.64 38.16 224.87 45.26 228.6 56.75 218.83 49.65 209.06 56.75 212.79 45.26 203.02 38.16 215.1 38.16 218.83 26.68"/><polygon class="cls-1" points="240.89 153.12 244.62 164.6 256.69 164.6 246.92 171.7 250.65 183.18 240.89 176.09 231.12 183.18 234.85 171.7 225.08 164.6 237.15 164.6 240.89 153.12"/></svg>