<?xml version="1.0" encoding="UTF-8"?><svg id="Capa_1" xmlns="http://www.w3.org/2000/svg" viewBox="0 0 800 500"><defs><style>.cls-1{fill:#fff;}</style></defs><rect width="800" height="167.11"/><rect y="332.89" width="800" height="167.11"/><g id="yIekf0.tif"><path d="M395.17,167.01l2.35,43.2,6.73-21.87c.47-6.52-.04-14.36,5.55-18.99,4.13-.17-.45,5.13-.7,7.54-.3,2.89.98,5.58.83,8.01-.64,9.86-6.9,18.61-5.39,28.8l20.44-40.86c1.23.75.6,3.73.3,4.97-2.98,12.19-11.33,25.49-13.73,38.22l7.03-11.06c2.48-3.12,6.4-5.67,8.66-8.86,3.67-5.17,4.73-16.11,13.51-13.36-5.78,3.91-5.76,10.18-8.83,15.69-4.06,7.28-13.16,12.85-14.52,22.26l33.3-30.33c2.97,1.54-.45,4.67-1.79,6.36-7.27,9.17-18.47,17.86-25.68,27.46,3.69-.91,6.27-4.17,9.73-6.03,3.24-1.74,7.04-2.57,10.51-4.68,6.17-3.74,11.27-12.18,19.49-9.12l-9.94,6.99-1.16-2.33-13.44,8.19.6,2.33,5.23-.03c-6.91,1.8-12.82,6.46-17.52,11.68,14.57-3.64,28.36-12.22,43.23-13.99l-3.86,3.73-37.04,17.27c6.61-2.56,14.04-1.4,20.3-2.47,5.79-.99,19.17-6.58,23.42-3.46l.67,3.6c-6.38-3.7-11.51,2.94-17.45,4.16-4.14.84-7.94.22-12.04.82l-12.56,4.36c12.14,2.13,24.63.16,36.79,1.19.95.08,10.5,1.13,7.62,3.48l-43.23,2.35,21,6.43c6.15,2.16,20.61-.89,19.32,8.73-5.58-5.57-10.31-2.03-16.2-2.4-8.36-.52-18.08-7.97-27.62-5.76l40.87,20.42c-1.84,2.7-2.12.99-4.02.55-12.07-2.78-24.43-10.56-36.85-12.8l17.6,14.51c5.24,3.81,14.91,4.51,13.96,12.91l-2.33.59c-1.16-6.08-8.53-5.89-13.25-8.37-7.62-4-13.32-13.55-22.99-14.96l30.36,33.27c-1.71,2.76-3.34.77-5.23-.59-9.26-6.69-18.86-19.92-28.62-26.85.9,3.69,4.19,6.25,6.04,9.72,1.74,3.27,2.61,6.97,4.7,10.48,1.75,2.93,14.54,15.66,8.51,18.32-2.1.93-2.34-4.44-4.04-6.44-1.83-2.15-5.04-3.41-7.52-6.5-5.22-6.51-6.98-16.88-14.7-22.08,3.39,14.65,11.98,28.44,14,43.2l-3.73-3.85-17.28-37.01c2.52,7.06,1.56,14.37,2.65,21.27,1.24,7.88,5.93,14.65,3.2,22.32l-3.52.77c3.42-6.91-2.89-11.19-4.16-17.44-.84-4.13-.22-7.94-.82-12.03l-4.36-12.56c-2.5,14.08.23,28.55-2.39,42.6-.36,1.91.77,2.01-2.29,1.76l-2.35-43.2-6.73,21.87c-.47,6.52.04,14.36-5.55,18.99-4.18.13.52-5.12.72-7.56.24-2.92-1.23-5.42-1.17-8.06.21-8.91,7.81-18.88,5.71-28.73l-20.44,40.86c-1.23-.75-.6-3.73-.3-4.97,3.01-12.37,11.22-25.41,13.73-38.22l-15.69,19.92c-3.81,5.36-4.33,14.93-12.92,13.95l-.59-2.33c6.09-1.16,5.9-8.53,8.38-13.24,4.01-7.61,13.56-13.31,14.97-22.98l-33.3,30.33c-2.97-1.54.45-4.67,1.79-6.36,7.27-9.17,18.48-17.86,25.68-27.46l-20.24,10.7c-6.16,3.74-11.26,12.18-19.49,9.12l9.94-6.99,1.16,2.33,13.44-8.19-1.62-2.21-10.65,6.89c-.86.19-.82-1.28-.57-1.73,2.51-4.69,21.35-9.64,24.53-16.93-14.59,3.57-28.41,12.16-43.23,13.99l4.61-4.14,36.28-16.86c-7.84,2.93-16.02,1.43-23.67,2.6-6.51,1-12.97,6.85-20.05,3.32l-.67-3.6c6.34,3.71,11.49-2.94,17.45-4.16,4.14-.84,7.94-.22,12.04-.82l13.73-4.36c-12.49-2.01-25.69-.15-37.95-1.19-.95-.08-10.5-1.13-7.62-3.48l43.23-2.35c-1.04-2.09-5.63-1.02-8.23-1.69-4.38-1.11-8.54-3.66-12.77-4.75-6.4-1.64-20.84.27-19.32-8.73,5.58,5.57,10.31,2.03,16.2,2.4,8.47.53,18.22,7.78,27.63,5.76l-40.87-20.42c1.84-2.7,2.12-.99,4.02-.55,12.07,2.78,24.43,10.56,36.85,12.8l-17.6-14.51c-4.69-2.4-14.78-6.84-13.95-12.91l2.32-.58c1.16,6.08,8.53,5.89,13.25,8.37,7.74,4.07,12.99,13.65,22.99,14.96l-30.36-33.27c1.71-2.76,3.34-.77,5.23.59,9.26,6.69,18.86,19.92,28.62,26.85-.9-3.69-4.19-6.25-6.04-9.72-1.74-3.27-2.6-6.97-4.7-10.48-3.89-6.49-12.04-11.2-9.1-19.5,2.98,1.44,2.48,5.12,4.63,7.62,1.85,2.15,5.04,3.4,7.52,6.5,5.29,6.6,6.68,16.89,14.7,22.08-3.38-14.67-12.11-28.36-14-43.2l3.73,3.85,16.11,34.67c-1.5-6.62-.39-13.73-1.26-20.33-.91-6.93-7.03-13.68-3.51-21.02l3.6-.67c-3.42,6.91,2.89,11.19,4.16,17.44.84,4.13.22,7.94.82,12.03l4.36,12.56c2.5-14.08-.23-28.55,2.39-42.6.36-1.91-.77-2.01,2.29-1.76ZM405.68,197.37c3.02-7.27,2.44-14.45,2.34-22.18l-4.2,18.66,1.86,3.51ZM384.65,199.7l-.27-9.64-5.55-12.53c2.5,6.47,2.85,12.18,4.05,18.72.23,1.23.11,3.77,1.77,3.46ZM422.06,205.54c2.24,2.19,12.21-11.7,10.5-15.17l-10.5,15.17ZM335.59,211.37c5.82.17,8.6,5.79,12.26,8.19,1.79,1.17,2.97.4,2.9-.59-.13-1.91-8.63-6.97-10.82-7.85-1.07-.43-4.46-2.21-4.34.24ZM393.62,217.68c-40.54.05-40.5,62.73.78,62.15,40.43-.57,40.61-62.2-.78-62.15ZM465.28,233.58c-6.2,1.86-12.4,2.8-18.73,4.05-1.25.25-3.77.08-3.46,1.76l9.65-.27,12.54-5.55ZM342.59,237.09c-7.28-3.02-14.46-2.44-22.19-2.34l18.68,4.19,3.52-1.86ZM344.93,258.1l-9.65.27-12.54,5.55c6.48-2.5,12.19-2.85,18.73-4.05,1.23-.23,3.77-.11,3.46-1.77ZM467.62,261.6c-3.18-.25-6.7.42-9.83-.11-3.97-.68-9.31-4.91-12.36-1.65,5.45,3.39,11.92,3.19,18.12,2.91,1.42-.06,4.34.89,4.07-1.15ZM365.96,291.96c-2.33-2.36-11.87,11.98-10.5,15.17l10.5-15.17ZM425.54,293.12c-1.89-.12-2.63-.55-2.32,1.73.33,2.44,7.22,13.08,9.35,11.1l-7.03-12.83ZM409.19,319.97c.13-3.78-2.48-6.66-3.22-10.19s1.02-9.88-2.6-11.98c-.36,4.72.02,8.78,1.22,13.36.65,2.46,2.48,7.28,4.6,8.82ZM381.14,322.3c.25-3.18-.42-6.7.11-9.82.68-3.97,4.92-9.31,1.65-12.35-3.39,5.45-3.19,11.91-2.91,18.11.06,1.42-.89,4.34,1.15,4.07Z"/><path class="cls-1" d="M393.62,217.68c41.39-.05,41.21,61.57.78,62.15-41.28.59-41.32-62.09-.78-62.15ZM392.53,238.55c-2.48-3.1-14.12-4.33-16.05.85,4.99-.79,13.79-3.55,15.18,3.51-5.42-1.37-8.01-5.12-13.94-1.66-6.85,4,5.66,10.89,11.72,5.74.96-.82-1.08-4.13,1.62-2.89s.08,5.03.61,6.99l3.48-4.66,1.2,7h2.32c-7.91-13.89,3.85-20.14,15.18-11.67-1.12-7.07-14.39-7.66-17.61-3.01-1.5,2.16-.1,5.19-2.23,5.34-.49-1.52-.62-4.42-1.49-5.52ZM409.38,245.42l3.31-1.93c-12.74-11.9-24.76,9.62-2.35,4.03l-.96-2.1ZM388.4,255.53c-.66-.53.54-2.6-1.38-2.1-2.72,5.89,16.1,6.69,14,0-1.96-.5-.5,1.95-1.87,2.29-.52.13-10.32.15-10.74-.18ZM402.19,263.91c-1.97-6.11-14.09-5.84-16.35-.56,4.17,2.11,5.23,2.9,3.51,7.58,3.77-3.12,5.6-3.09,9.33,0-1.45-3.99-1.12-6.19,3.52-7.03Z"/><path class="cls-1" d="M405.68,197.37l-1.86-3.51,4.2-18.66c.1,7.73.68,14.91-2.34,22.18Z"/><path class="cls-1" d="M465.28,233.58l-12.54,5.55-9.65.27c-.31-1.68,2.21-1.51,3.46-1.76,6.33-1.25,12.52-2.2,18.73-4.05Z"/><path class="cls-1" d="M342.59,237.09l-3.52,1.86-18.68-4.19c7.74-.1,14.92-.68,22.19,2.34Z"/><path class="cls-1" d="M409.19,319.97c-2.11-1.54-3.95-6.36-4.6-8.82-1.21-4.57-1.58-8.63-1.22-13.36,3.61,2.1,1.84,8.35,2.6,11.98s3.35,6.41,3.22,10.19Z"/><path class="cls-1" d="M467.62,261.6c.27,2.04-2.65,1.09-4.07,1.15-6.2.28-12.67.47-18.12-2.91,3.05-3.27,8.39.97,12.36,1.65,3.12.53,6.64-.14,9.83.11Z"/><path class="cls-1" d="M381.14,322.3c-2.05.27-1.09-2.65-1.15-4.07-.28-6.2-.47-12.66,2.91-18.11,3.27,3.05-.97,8.38-1.65,12.35-.53,3.12.14,6.64-.11,9.82Z"/><path class="cls-1" d="M384.65,199.7c-1.66.31-1.54-2.23-1.77-3.46-1.2-6.54-1.55-12.24-4.05-18.72l5.55,12.53.27,9.64Z"/><path class="cls-1" d="M344.93,258.1c.31,1.66-2.23,1.54-3.46,1.77-6.54,1.2-12.25,1.54-18.73,4.05l12.54-5.55,9.65-.27Z"/><path class="cls-1" d="M422.06,205.54l10.5-15.17c1.71,3.47-8.26,17.36-10.5,15.17Z"/><path class="cls-1" d="M365.96,291.96l-10.5,15.17c-1.37-3.18,8.17-17.53,10.5-15.17Z"/><path class="cls-1" d="M335.59,211.37c-.12-2.45,3.26-.67,4.34-.24,2.2.88,10.69,5.94,10.82,7.85.07.98-1.11,1.76-2.9.59-3.66-2.4-6.44-8.02-12.26-8.19Z"/><path class="cls-1" d="M425.54,293.12l7.03,12.83c-2.13,1.98-9.03-8.66-9.35-11.1-.31-2.29.44-1.85,2.32-1.73Z"/><path d="M392.53,238.55c.88,1.1,1,4,1.49,5.52,2.13-.15.73-3.18,2.23-5.34,3.22-4.65,16.49-4.06,17.61,3.01-11.33-8.47-23.09-2.21-15.18,11.67h-2.32s-1.2-6.99-1.2-6.99l-3.48,4.66c-.53-1.96,2.09-5.74-.61-6.99s-.66,2.07-1.62,2.89c-6.06,5.15-18.57-1.74-11.72-5.74,5.93-3.46,8.51.29,13.94,1.66-1.4-7.06-10.19-4.3-15.18-3.51,1.93-5.18,13.57-3.95,16.05-.85Z"/><path d="M402.19,263.91c-4.63.84-4.97,3.04-3.52,7.03-3.73-3.09-5.56-3.12-9.33,0,1.72-4.68.66-5.47-3.51-7.58,2.27-5.28,14.39-5.55,16.35.56Z"/><path d="M409.38,245.42l.96,2.1c-22.41,5.59-10.4-15.93,2.35-4.03l-3.31,1.93Z"/><path d="M388.4,255.53c.42.34,10.22.31,10.74.18,1.37-.34-.09-2.78,1.87-2.29,2.11,6.69-16.71,5.89-14,0,1.93-.49.72,1.57,1.38,2.1Z"/></g><circle cx="393.96" cy="250" r="47.93"/></svg>