<?xml version="1.0" encoding="UTF-8"?>
<svg id="Capa_1" xmlns="http://www.w3.org/2000/svg" version="1.1" viewBox="0 0 3764.5 2117.5">
  <!-- Generator: Adobe Illustrator 29.0.0, SVG Export Plug-In . SVG Version: 2.1.0 Build 186)  -->
  <defs>
    <style>
      .st0 {
        stroke: #000;
        stroke-miterlimit: 10;
        stroke-width: 2px;
      }
    </style>
  </defs>
  <path d="M1728.9,978.7c-114.4,0-222-20-303-56.2-82.2-36.8-127.4-86.1-127.4-138.9s45.2-102.1,127.4-138.9c81-36.2,188.6-56.2,303-56.2s222,20,303,56.2c82.2,36.8,127.4,86.1,127.4,138.9s-45.2,102.1-127.4,138.9c-81,36.2-188.6,56.2-303,56.2h0ZM1728.9,597.5c-113.1,0-219.4,19.7-299.3,55.4-38.6,17.3-68.8,37.3-89.8,59.6-21.4,22.6-32.2,46.6-32.2,71.1s10.8,48.5,32.2,71.1c21,22.3,51.3,42.3,89.8,59.6,79.9,35.8,186.2,55.4,299.3,55.4s219.4-19.7,299.3-55.4c38.6-17.3,68.8-37.3,89.8-59.6,21.4-22.6,32.2-46.6,32.2-71.1s-10.9-48.5-32.2-71.1c-21-22.3-51.3-42.3-89.8-59.6-79.9-35.8-186.2-55.4-299.3-55.4h0Z"/>
  <path d="M1727.6,953.5c-106.1,0-206-17.2-281.1-48.4-76.4-31.7-118.5-74.4-118.5-120.2s42.1-88.5,118.5-120.2c75.2-31.2,175-48.4,281.1-48.4s206,17.2,281.1,48.4c76.4,31.7,118.5,74.4,118.5,120.2s-42.1,88.5-118.5,120.2c-75.2,31.2-175,48.4-281.1,48.4ZM1727.6,625.3c-105,0-203.6,17-277.7,47.7-35.8,14.8-63.8,32.1-83.2,51.2-19.7,19.3-29.7,39.8-29.7,60.7s10,41.3,29.7,60.7c19.5,19.1,47.5,36.4,83.2,51.2,74.1,30.8,172.7,47.7,277.7,47.7s203.6-17,277.7-47.7c35.8-14.8,63.8-32.1,83.3-51.2,19.7-19.3,29.7-39.8,29.7-60.7s-10-41.3-29.7-60.7c-19.5-19.1-47.5-36.4-83.2-51.2-74.1-30.8-172.7-47.7-277.7-47.7Z"/>
  <path d="M1406.6,827.5c-17.3,0-31.5-14.1-31.5-31.5s14.1-31.5,31.5-31.5,31.5,14.1,31.5,31.5-14.1,31.5-31.5,31.5ZM1406.6,773.5c-12.4,0-22.5,10.1-22.5,22.5s10.1,22.5,22.5,22.5,22.5-10.1,22.5-22.5-10.1-22.5-22.5-22.5Z"/>
  <rect x="1391.8" y="793.6" width="29.9" height="6.5"/>
  <path d="M2041.4,828.4c-17.3,0-31.5-14.1-31.5-31.5s14.1-31.5,31.5-31.5,31.5,14.1,31.5,31.5-14.1,31.5-31.5,31.5h0ZM2041.4,774.4c-12.4,0-22.5,10.1-22.5,22.5s10.1,22.5,22.5,22.5,22.5-10.1,22.5-22.5-10.1-22.5-22.5-22.5h0Z"/>
  <rect x="2026.5" y="794.5" width="29.9" height="6.5"/>
  <circle cx="1727.6" cy="886.1" r="32.6"/>
  <path d="M1663.2,872.3h141.6v12.1c0,6.7-5.5,12.2-12.2,12.2h-140.5v-13.2c0-6.1,5-11.1,11.1-11.1h0Z"/>
  <path class="st0" d="M1501.5,803.9c-.9,0-1.4-.4-1.4-1.2s.6-1.3,1.9-1.6l1.9-.4c1.6-.3,2.9-1.1,4.1-2.4,1.1-1.3,2.2-3.1,3.2-5.4l35.3-77.9c.4-.8.8-1.4,1.2-1.6s.8-.4,1.1-.4.7.1,1,.4c.3.2.4.8.4,1.6l1.3,79c0,2.3.3,3.9.8,4.8s1.5,1.5,2.9,1.9l1.5.4c.9.2,1.4.8,1.4,1.5s-.7,1.4-2,1.4h-19.5c-1,0-1.5-.4-1.5-1.2s.8-1.5,2.4-1.6l2.4-.2c1.3-.2,2.3-.6,2.8-1.4.5-.8.8-2,.8-3.9l-.2-19.3c0-2.2-1.1-3.2-3.2-3.2h-12.6c-2.1,0-3.6,1.1-4.6,3.2l-7.7,16.7c-2.1,4.7-1.4,7.3,2.1,7.8l1.7.2c1.2.2,1.8.7,1.8,1.5s-.7,1.4-2,1.4h-17.1,0ZM1527.8,769.3h13.2c1.3,0,2-.7,2-2.1l-.2-34h-.6l-15.5,34c-.3.6-.3,1.1-.1,1.5.2.4.6.6,1.2.6h0Z"/>
  <path class="st0" d="M1558.3,803.9c-1.1,0-1.7-.4-1.7-1.2s.8-1.5,2.4-1.7l2.4-.4c1.7-.2,2.9-.7,3.5-1.3.6-.6,1.1-1.8,1.5-3.5l16.1-73.3c.4-1.7.4-2.8,0-3.4-.4-.6-1.4-1.1-2.9-1.4l-2.4-.5c-1-.2-1.5-.7-1.5-1.4,0-1,.7-1.5,2.1-1.5h22.6c5.3,0,9.6,1.5,12.9,4.6s5,7.1,5,12-1.6,9-4.7,13.2c-3.2,4.2-7.4,7.2-12.6,9.1-.4,0-.6.3-.6.6s.2.5.6.7c4.1,1.6,7.2,4.1,9.3,7.6,2.1,3.5,3.2,7.6,3.2,12.2s-1.4,10.5-4.1,15c-2.8,4.5-6.5,8.1-11.2,10.8-4.7,2.7-9.9,4-15.7,4h-24.1ZM1582.8,800.8c4.2,0,7.9-1.2,11.2-3.5,3.3-2.4,5.9-5.6,7.9-9.8,1.9-4.2,2.9-8.8,2.9-14s-1.2-10-3.7-13.1-6-4.6-10.5-4.6-7.8,2.2-8.6,6.6l-6.5,29.8c-1.3,5.7,1.2,8.6,7.3,8.6h0ZM1590.7,752.7c3.5,0,6.6-1,9.5-2.9,2.9-1.9,5.2-4.5,6.9-7.8,1.7-3.3,2.6-6.9,2.6-10.8s-1-7.8-3.1-10.3-5-3.7-8.7-3.7-6.5,1.7-7.2,5l-5.1,23.5c-.6,2.5-.4,4.3.3,5.3.8,1,2.4,1.6,4.7,1.6h0Z"/>
  <path class="st0" d="M1643.8,805c-6.1,0-11-2.7-14.6-8s-5.4-13.1-5.4-23.4.7-12.2,2-18.1,3.2-11.4,5.6-16.5,5.1-9.6,8.2-13.6c3.1-3.9,6.5-7,10-9.2,3.6-2.2,7.3-3.3,11.1-3.3,6.1,0,11,2.6,14.6,7.9,3.6,5.3,5.4,13.1,5.4,23.5s-.7,12.2-2,18.1-3.2,11.4-5.6,16.5-5.1,9.6-8.2,13.6c-3.1,4-6.5,7-10,9.2-3.6,2.2-7.3,3.3-11.1,3.3h0ZM1643.6,801.8c2.9,0,5.8-1.2,8.6-3.7,2.8-2.5,5.4-5.8,7.9-10.1,2.5-4.3,4.7-9.2,6.6-14.8,1.9-5.6,3.4-11.6,4.4-17.9s1.6-12.7,1.6-19.2c0-13.3-3.9-19.9-11.7-19.9s-5.8,1.2-8.6,3.7c-2.8,2.5-5.4,5.8-7.9,10.1-2.5,4.3-4.7,9.2-6.6,14.8-1.9,5.6-3.4,11.6-4.4,17.9s-1.6,12.7-1.6,19.2c0,13.3,3.9,19.9,11.7,19.9Z"/>
  <path class="st0" d="M1706.9,805c-4.2,0-7.9-1.1-10.9-3.2s-5.1-5.1-6.3-8.8c-1.2-3.8-1.3-8.1-.2-13l12.6-57.6c.4-1.7.4-2.9,0-3.5-.4-.6-1.4-1-2.9-1.4l-2.4-.5c-1-.2-1.5-.7-1.5-1.4,0-1,.7-1.5,2.1-1.5h21.3c1.1,0,1.7.4,1.7,1.2s-.6,1.5-1.7,1.6l-3.3.5c-1.7.2-2.8.7-3.5,1.4-.7.7-1.2,1.9-1.6,3.6l-12.6,57.6c-1.4,6.3-1,11.2,1.2,14.7s5.7,5.2,10.4,5.2,9.2-1.7,12.4-5.2,5.4-8.4,6.7-14.7l12.1-55.1c1-4.7.2-7.1-2.4-7.5l-2.6-.4c-1.1-.2-1.7-.7-1.7-1.5s.2-.9.7-1.1,1-.4,1.5-.4h17c1,0,1.5.4,1.5,1.2s-.6,1.4-1.9,1.6l-2.8.5c-2.8.5-4.7,3-5.7,7.3l-12.1,55.1c-1.7,7.6-4.7,13.6-9,18.2s-9.8,6.8-16.4,6.8h0Z"/>
  <path class="st0" d="M1751.5,803.9c-1.1,0-1.7-.4-1.7-1.2s.6-1.4,1.9-1.6l5-.9c1.6-.2,2.8-.7,3.5-1.3.8-.6,1.3-1.8,1.7-3.5l16.4-74.8c.2-1.2.1-2-.3-2.5s-1.4-.8-2.9-.8c-2.7,0-5.6,1.1-8.8,3.4-3.2,2.3-6,6.5-8.6,12.8l-1.9,4.7c-.4,1.1-1.1,1.6-2,1.6s-1.5-.7-1.1-2.1l5.9-22.5c.5-1.9,1.3-2.9,2.6-2.9s1.3.2,1.7.4c.4.3,1.2.6,2.2.9,1,.3,2.8.5,5.3.5h26.3c2.5,0,4.4-.2,5.6-.5s2.1-.6,2.7-.9,1.1-.4,1.6-.4c1.3,0,1.8,1,1.4,2.9l-3.8,22.5c-.2,1.4-.9,2.1-2,2.1s-1.5-.5-1.3-1.6l.2-3.1c.5-6.2-.3-10.7-2.2-13.5-2-2.9-4.7-4.3-8.3-4.3s-2.5.2-3.1.8-1,1.3-1.2,2.5l-16.4,74.8c-.4,1.7-.3,2.9.2,3.5.5.6,1.5,1.1,3,1.3l5.6.9c.9,0,1.3.5,1.3,1.4s-.6,1.5-1.9,1.5h-26.7Z"/>
  <path class="st0" d="M1848.9,802.7c-.4,0-.8-.1-1.1-.4-.3-.2-.5-.8-.5-1.6l-1.2-76c0-.6-.2-.9-.5-.9s-.6.2-.8.8l-17.4,68.7c-.6,2.3-.6,4.1,0,5.3.5,1.2,1.7,2,3.6,2.3l1.4.2c.9,0,1.4.5,1.4,1.4s-.8,1.5-2.2,1.5h-16.7c-1.2,0-1.8-.4-1.8-1.2s.6-1.5,1.9-1.6l1.7-.2c2.1-.3,3.7-1.1,4.7-2.3,1-1.2,1.8-3,2.4-5.3l17.8-70.8c.4-1.7.4-2.9,0-3.5s-1.5-1-3.2-1.4l-2-.4c-1.3-.2-1.9-.8-1.9-1.6s.7-1.4,2.1-1.4h14.2c2.3,0,3.4,1.2,3.4,3.7l.7,61.9c0,.6.2.9.5.9s.7-.2.9-.7l28.6-62.8c.9-2.1,2.4-3.1,4.5-3.1h14.3c.9,0,1.4.4,1.4,1.2s-.7,1.4-2,1.6l-2.8.5c-1.7.3-2.9.8-3.5,1.4s-1.1,1.7-1.5,3.5l-13.7,73.3c-.3,1.8-.3,2.9,0,3.5.3.6,1.3,1,2.9,1.4l2,.4c.8,0,1.3.3,1.5.6s.3.6.3.9c0,1-.7,1.5-2.1,1.5h-21c-1.1,0-1.7-.4-1.7-1.2s.6-1.4,1.9-1.6l2.8-.5c1.7-.3,2.9-.8,3.6-1.4.7-.6,1.2-1.7,1.5-3.5l13.3-70.6c.2-.6,0-.9-.3-1.1-.4-.1-.7,0-.9.6l-34.5,76.1c-.3.8-.7,1.4-1,1.6s-.7.4-1.1.4h0Z"/>
  <path class="st0" d="M1893.3,803.9c-1.1,0-1.7-.4-1.7-1.2s.8-1.5,2.4-1.7l2.4-.4c1.7-.2,2.9-.7,3.6-1.3.7-.6,1.2-1.8,1.5-3.5l16.1-73.3c.4-1.7.4-2.9,0-3.5-.4-.6-1.4-1-2.9-1.4l-2.4-.5c-1-.2-1.5-.7-1.5-1.4,0-1,.7-1.5,2.1-1.5h39.5c2.1,0,2.9,1,2.5,2.9l-3.7,20.7c-.2,1.4-.9,2.1-1.9,2.1s-1.6-.5-1.4-1.6l.3-4.4c.4-4.2,0-7.6-1-10s-2.6-4.1-4.7-5.1-4.5-1.5-7.3-1.5-5.4.5-6.8,1.4c-1.4,1-2.4,2.6-2.9,5l-6.5,30c-.2,1.2.2,1.7,1.3,1.7h6c3.5,0,6-2,7.6-5.9l2.6-6.2c.4-1.1,1-1.6,1.9-1.6s.8.2,1.1.6.3.9.2,1.6l-6.1,28c-.4,1.4-1.1,2.1-2,2.1s-1.4-.5-1.4-1.6v-6.1c.2-2.9-.1-4.8-.9-5.7-.8-.9-2-1.4-3.8-1.4h-5.9c-1.2,0-1.9.6-2.1,1.7l-6.8,31.3c-.6,3-.3,5.2.8,6.5,1.2,1.3,3.7,2,7.6,2s4.7-.4,7-1.2c2.3-.8,4.5-2.3,6.6-4.5,2.1-2.2,4-5.5,5.7-9.7l2.8-7c.4-1.1,1-1.6,1.9-1.6s1.6.7,1.2,2.1l-6,22.2c-.5,1.9-1.7,2.9-3.5,2.9h-41.1Z"/>
</svg>