<?xml version="1.0" encoding="UTF-8"?>
<svg id="Capa_1" xmlns="http://www.w3.org/2000/svg" version="1.1" viewBox="0 0 3764.5 2117.5">
  <!-- Generator: Adobe Illustrator 29.0.0, SVG Export Plug-In . SVG Version: 2.1.0 Build 186)  -->
  <defs>
    <style>
      .st0 {
        stroke: #000;
        stroke-miterlimit: 10;
        stroke-width: 3px;
      }
    </style>
  </defs>
  <path d="M2482.9,1498.1c-114.4,0-222-20-303-56.2-82.1-36.8-127.4-86.1-127.4-138.9s45.2-102.1,127.4-138.9c81-36.2,188.6-56.2,303-56.2s222,20,303,56.2c82.1,36.8,127.4,86.1,127.4,138.9s-45.2,102.1-127.4,138.9c-81,36.2-188.6,56.2-303,56.2ZM2482.9,1116.8c-113.1,0-219.4,19.7-299.3,55.4-38.6,17.3-68.8,37.3-89.8,59.6-21.4,22.6-32.2,46.6-32.2,71.1s10.9,48.5,32.2,71.1c21,22.3,51.3,42.3,89.8,59.6,79.9,35.8,186.2,55.4,299.3,55.4s219.4-19.7,299.3-55.4c38.6-17.3,68.8-37.3,89.8-59.6,21.4-22.6,32.2-46.6,32.2-71.1s-10.9-48.5-32.2-71.1c-21-22.3-51.3-42.3-89.8-59.6-79.9-35.8-186.2-55.4-299.3-55.4Z"/>
  <path d="M2481.6,1472.9c-106.1,0-206-17.2-281.1-48.4-76.4-31.7-118.5-74.4-118.5-120.2s42.1-88.5,118.5-120.2c75.2-31.2,175-48.4,281.1-48.4s206,17.2,281.1,48.4c76.4,31.7,118.5,74.4,118.5,120.2s-42.1,88.5-118.5,120.2c-75.2,31.2-175,48.4-281.1,48.4h0ZM2481.6,1144.7c-105,0-203.6,16.9-277.7,47.7-35.8,14.8-63.8,32.1-83.2,51.2-19.7,19.3-29.7,39.8-29.7,60.7s10,41.3,29.7,60.7c19.5,19.1,47.5,36.4,83.2,51.2,74.1,30.8,172.7,47.7,277.7,47.7s203.6-16.9,277.7-47.7c35.8-14.8,63.8-32.1,83.2-51.2,19.7-19.3,29.7-39.8,29.7-60.7s-10-41.3-29.7-60.7c-19.5-19.1-47.5-36.4-83.2-51.2-74.1-30.8-172.7-47.7-277.7-47.7Z"/>
  <path d="M2160.6,1346.9c-17.4,0-31.5-14.1-31.5-31.5s14.1-31.5,31.5-31.5,31.5,14.1,31.5,31.5-14.1,31.5-31.5,31.5ZM2160.6,1292.9c-12.4,0-22.5,10.1-22.5,22.5s10.1,22.5,22.5,22.5,22.5-10.1,22.5-22.5-10.1-22.5-22.5-22.5Z"/>
  <rect x="2145.7" y="1313" width="29.9" height="6.5"/>
  <path d="M2795.3,1347.8c-17.4,0-31.5-14.1-31.5-31.5s14.1-31.5,31.5-31.5,31.5,14.1,31.5,31.5-14.1,31.5-31.5,31.5ZM2795.3,1293.8c-12.4,0-22.5,10.1-22.5,22.5s10.1,22.5,22.5,22.5,22.5-10.1,22.5-22.5-10.1-22.5-22.5-22.5Z"/>
  <rect x="2780.5" y="1313.9" width="29.9" height="6.5"/>
  <circle cx="2481.6" cy="1405.5" r="32.6"/>
  <path d="M2417.2,1391.7h141.6v12.1c0,6.7-5.5,12.2-12.2,12.2h-140.5v-13.2c0-6.1,5-11.1,11.1-11.1h0Z"/>
  <path class="st0" d="M2287,1313.9c-.9,0-1.4-.4-1.4-1.2s.6-1.3,1.9-1.6l1.9-.4c1.6-.3,2.9-1.1,4.1-2.4,1.1-1.3,2.2-3.1,3.2-5.4l35.2-77.6c.4-.8.8-1.4,1.2-1.6.4-.2.8-.4,1.1-.4s.7.1,1,.4c.3.2.4.8.4,1.6l1.3,78.7c0,2.3.4,3.9.8,4.8s1.4,1.5,2.9,1.9l1.5.4c.9.2,1.4.8,1.4,1.5s-.7,1.4-2,1.4h-19.4c-1,0-1.5-.4-1.5-1.2s.8-1.4,2.4-1.6l2.4-.2c1.3-.2,2.2-.6,2.8-1.4.5-.8.8-2,.8-3.8l-.2-19.2c0-2.2-1.1-3.2-3.2-3.2h-12.6c-2,0-3.6,1.1-4.6,3.2l-7.6,16.6c-2.1,4.7-1.4,7.3,2.1,7.8l1.6.2c1.2.2,1.8.7,1.8,1.5s-.7,1.4-2,1.4h-17.1,0ZM2313.3,1279.4h13.2c1.3,0,2-.7,2-2.1l-.2-33.9h-.6l-15.4,33.9c-.3.6-.4,1.1-.1,1.5.2.4.6.6,1.2.6h0Z"/>
  <path class="st0" d="M2393.6,1315c-3.3,0-6-1.2-8.1-3.7s-3.1-6-3-10.4v-13.8c.2-4.5,0-7.9-.6-10.2-.6-2.3-1.6-3.9-3.1-4.7s-3.7-1.2-6.6-1.2-3,.3-3.8,1c-.8.7-1.4,1.7-1.7,3.1l-6.8,30.2c-.4,1.7-.4,2.9.1,3.6.5.7,1.7,1.2,3.6,1.5l5.2.8c1.1,0,1.6.5,1.6,1.4s-.6,1.5-1.9,1.5h-24.9c-1.1,0-1.6-.4-1.6-1.2s.8-1.5,2.4-1.7l2.4-.4c1.7-.2,2.9-.7,3.6-1.3.7-.6,1.2-1.8,1.5-3.5l16-73c.4-1.7.4-2.9,0-3.5s-1.4-1-2.9-1.4l-2.4-.5c-1-.2-1.5-.7-1.5-1.4,0-1,.7-1.5,2.1-1.5h23.9c4.6,0,8.5.9,11.5,2.6s5.4,4.1,6.9,6.9c1.5,2.9,2.3,6.1,2.3,9.6s-1.1,8.4-3.2,11.9c-2.1,3.6-4.9,6.6-8.3,9-3.4,2.4-7.1,4.2-11,5.4-.5,0-.7.3-.8.7s.2.7.6.9c2.2,1.2,3.7,3,4.5,5.2s1.2,5.2,1.2,8.9v12.7c0,4.6.5,7.7,1.4,9.4.9,1.7,2.2,2.5,3.9,2.5s1.2,0,1.6-.3c.5-.2,1.1-.6,1.9-1.2.6-.6,1.2-.8,1.7-.5s.8.7.8,1.4c0,1.2-.8,2.3-2.5,3.5-1.6,1.2-3.6,1.8-6,1.8h0ZM2376.4,1267.8c3.9,0,7.6-1.1,11.1-3.3s6.3-5.2,8.4-9.1,3.2-8.1,3.2-12.8-1.1-8.3-3.2-11-5.9-4-11.2-4-7.9,1.7-8.7,5l-6.2,28.4c-1,4.6,1.2,6.8,6.7,6.8h0Z"/>
  <path class="st0" d="M2435.3,1315c-8.3,0-14.3-2.8-18.1-8.3-3.7-5.5-5.6-13.6-5.6-24.1s.6-10.3,1.8-15.8c1.2-5.5,2.9-10.8,5.1-15.9,2.2-5.2,4.9-9.8,8.1-14,3.1-4.1,6.7-7.4,10.6-9.9,4-2.5,8.3-3.7,12.9-3.7s10.5,1.9,14.9,5.8c.8.7,1.1,1.6.8,2.7l-3.5,18.8c-.2,1.3-.8,2-1.8,2s-1.4-.7-1.4-2v-4.8c-.3-6.9-1.2-11.8-3-14.7s-4.2-4.3-7.4-4.3-6,1.3-8.8,3.9-5.5,6.1-7.9,10.4c-2.4,4.3-4.6,9.2-6.4,14.4-1.8,5.3-3.3,10.5-4.3,15.8-1,5.3-1.5,10.2-1.5,14.8,0,7.4,1.1,13.5,3.2,18.2s5.8,7.1,10.8,7.1,5.6-1.1,7.9-3.4c2.3-2.3,4.7-6.2,7.1-11.7l2.6-5.8c.4-1,1-1.5,1.8-1.5,1.2,0,1.7.8,1.3,2.4l-4.7,19.4c-.3,1.2-.9,2-1.9,2.2-1.3.5-3.3,1-5.8,1.4-2.5.4-4.8.7-6.9.7h0Z"/>
  <path class="st0" d="M2458.5,1313.9c-1.1,0-1.6-.4-1.6-1.2s.8-1.5,2.4-1.7l2.4-.4c1.7-.2,2.9-.7,3.6-1.3.7-.6,1.2-1.8,1.5-3.5l16-73c.4-1.7.4-2.9,0-3.5s-1.4-1-2.9-1.4l-2.4-.5c-1-.2-1.5-.7-1.5-1.4,0-1,.7-1.5,2.1-1.5h21.2c1.1,0,1.6.5,1.6,1.4s-.7,1.4-2.1,1.6l-2.8.4c-1.7.2-2.9.7-3.5,1.4-.6.7-1.1,1.9-1.5,3.6l-6.8,31.2c-.2,1.2.2,1.7,1.3,1.7h23.3c1.1,0,1.8-.6,2-1.7l6.8-31.2c.4-1.7.4-2.9,0-3.6s-1.4-1.1-2.9-1.4l-2.6-.4c-1.1,0-1.6-.6-1.6-1.5s.8-1.5,2.2-1.5h21.2c1.1,0,1.6.4,1.6,1.2s-.8,1.5-2.4,1.7l-2.4.4c-1.7.2-2.9.7-3.5,1.3-.6.6-1.1,1.8-1.5,3.5l-16,73c-.3,1.7-.3,2.9,0,3.5s1.3,1,2.9,1.4l2.4.5c1,.2,1.5.7,1.5,1.4,0,1-.7,1.5-2.1,1.5h-21.2c-1.1,0-1.6-.4-1.6-1.4s.7-1.4,2.1-1.6l2.8-.4c1.7-.2,2.9-.7,3.6-1.4.7-.7,1.2-1.9,1.5-3.6l7.5-34.4c.2-1.2-.2-1.7-1.2-1.7h-23.3c-1.2,0-1.9.6-2.1,1.7l-7.5,34.4c-.3,1.7-.3,2.9,0,3.6s1.3,1.1,2.9,1.4l2.6.4c1.1,0,1.6.6,1.6,1.5s-.8,1.5-2.2,1.5h-21.2Z"/>
  <path class="st0" d="M2522.7,1313.9c-1.1,0-1.6-.4-1.6-1.2s.8-1.5,2.4-1.7l2.4-.4c1.7-.2,2.9-.7,3.6-1.3.7-.6,1.2-1.8,1.5-3.5l16-73c.4-1.7.4-2.9,0-3.5s-1.4-1-2.9-1.4l-2.4-.5c-1-.2-1.5-.7-1.5-1.4,0-1,.7-1.5,2.1-1.5h20.9c1.1,0,1.6.4,1.6,1.2s-.8,1.5-2.4,1.7l-2.4.4c-1.7.2-2.9.7-3.5,1.3-.6.6-1.1,1.8-1.5,3.5l-16,73c-.3,1.7-.3,2.9,0,3.5s1.3,1,2.9,1.4l2.4.5c1,.2,1.5.7,1.5,1.4,0,1-.7,1.5-2.1,1.5h-20.9Z"/>
  <path class="st0" d="M2573.3,1315.2c-.3,0-.6-.1-.9-.4s-.5-.8-.5-1.6l-1.3-78.7c0-2.3-.4-3.9-.8-4.8-.5-.9-1.4-1.5-2.9-1.9l-1.5-.4c-.9-.2-1.4-.8-1.4-1.5s.7-1.4,2-1.4h19.4c1,0,1.5.4,1.5,1.2s-.8,1.4-2.4,1.6l-2.4.2c-1.3,0-2.3.5-2.8,1.3-.5.8-.8,2.1-.8,3.9l.6,58.7c0,.8.2,1.3.7,1.4.5,0,.9-.2,1.2-.9l25.8-56.6c2.2-4.7,1.5-7.3-2.1-7.8l-1.6-.2c-1.2-.2-1.8-.8-1.8-1.5s.7-1.4,2-1.4h17.1c.9,0,1.4.4,1.4,1.2s-.6,1.3-1.9,1.6l-1.9.4c-1.6.3-2.9,1.1-4,2.4s-2.2,3.1-3.3,5.4l-35.2,77.6c-.3.8-.7,1.4-1.1,1.6-.4.2-.8.4-1.1.4h0Z"/>
  <path class="st0" d="M2603.4,1313.9c-1.1,0-1.6-.4-1.6-1.2s.8-1.5,2.4-1.7l2.4-.4c1.7-.2,2.9-.7,3.6-1.3.7-.6,1.2-1.8,1.5-3.5l16-73c.4-1.7.4-2.9,0-3.5s-1.4-1-2.9-1.4l-2.4-.5c-1-.2-1.5-.7-1.5-1.4,0-1,.7-1.5,2.1-1.5h39.3c2,0,2.9.9,2.5,2.9l-3.6,20.6c-.2,1.4-.9,2.1-1.9,2.1s-1.6-.5-1.4-1.6l.4-4.3c.4-4.2,0-7.5-1-9.9s-2.6-4.1-4.7-5.1-4.5-1.5-7.2-1.5-5.4.5-6.8,1.4c-1.4.9-2.4,2.6-2.9,5l-6.5,29.9c-.2,1.2.2,1.7,1.3,1.7h6c3.4,0,6-1.9,7.5-5.8l2.6-6.2c.4-1.1,1-1.6,1.9-1.6s.8.2,1.1.6c.3.4.3.9.2,1.6l-6.1,27.9c-.4,1.4-1.1,2.1-2,2.1s-1.4-.5-1.4-1.6v-6.1c.2-2.9-.1-4.8-.9-5.7-.8-.9-2-1.4-3.8-1.4h-5.9c-1.2,0-1.9.6-2.1,1.7l-6.8,31.2c-.6,3-.4,5.1.8,6.5,1.2,1.3,3.7,2,7.5,2s4.7-.4,7-1.2,4.5-2.3,6.6-4.5,4-5.5,5.7-9.7l2.8-6.9c.4-1.1,1-1.6,1.9-1.6s1.6.7,1.2,2.1l-6,22.1c-.5,1.9-1.6,2.9-3.5,2.9h-41Z"/>
</svg>