<?xml version="1.0" encoding="UTF-8"?>
<svg id="Capa_1" xmlns="http://www.w3.org/2000/svg" version="1.1" viewBox="0 0 3764.5 2117.5">
  <!-- Generator: Adobe Illustrator 29.0.0, SVG Export Plug-In . SVG Version: 2.1.0 Build 186)  -->
  <defs>
    <style>
      .st0 {
        stroke: #000;
        stroke-miterlimit: 10;
        stroke-width: 3px;
      }
    </style>
  </defs>
  <path d="M1743.4,1982.5c-114.4,0-222-20-303-56.2-82.2-36.8-127.4-86.1-127.4-138.9s45.2-102.1,127.4-138.9c81-36.2,188.6-56.2,303-56.2s222,20,303,56.2c82.2,36.8,127.4,86.1,127.4,138.9s-45.2,102.1-127.4,138.9c-81,36.2-188.6,56.2-303,56.2ZM1743.4,1601.3c-113.1,0-219.4,19.7-299.3,55.4-38.6,17.3-68.8,37.3-89.8,59.6-21.4,22.6-32.2,46.6-32.2,71.1s10.8,48.5,32.2,71.1c21,22.3,51.3,42.3,89.8,59.6,79.9,35.8,186.2,55.4,299.3,55.4s219.4-19.7,299.3-55.4c38.6-17.3,68.8-37.3,89.8-59.6,21.4-22.6,32.2-46.6,32.2-71.1s-10.9-48.5-32.2-71.1c-21-22.3-51.3-42.3-89.8-59.6-79.9-35.8-186.2-55.4-299.3-55.4h0Z"/>
  <path d="M1742.1,1957.4c-106.1,0-206-17.2-281.1-48.4-76.4-31.7-118.5-74.4-118.5-120.2s42.1-88.5,118.5-120.2c75.2-31.2,175-48.4,281.1-48.4s206,17.2,281.1,48.4c76.4,31.7,118.5,74.4,118.5,120.2s-42.1,88.5-118.5,120.2c-75.2,31.2-175,48.4-281.1,48.4ZM1742.1,1629.2c-105,0-203.6,16.9-277.7,47.7-35.8,14.8-63.8,32.1-83.2,51.2-19.7,19.3-29.7,39.8-29.7,60.7s10,41.3,29.7,60.7c19.5,19.1,47.5,36.4,83.2,51.2,74.1,30.8,172.7,47.7,277.7,47.7s203.6-16.9,277.7-47.7c35.8-14.8,63.8-32.1,83.3-51.2,19.7-19.3,29.7-39.8,29.7-60.7s-10-41.3-29.7-60.7c-19.5-19.1-47.5-36.4-83.2-51.2-74.1-30.8-172.7-47.7-277.7-47.7Z"/>
  <path d="M1421.1,1831.4c-17.3,0-31.5-14.1-31.5-31.5s14.1-31.5,31.5-31.5,31.5,14.1,31.5,31.5-14.1,31.5-31.5,31.5ZM1421.1,1777.4c-12.4,0-22.5,10.1-22.5,22.5s10.1,22.5,22.5,22.5,22.5-10.1,22.5-22.5-10.1-22.5-22.5-22.5Z"/>
  <rect x="1406.3" y="1797.5" width="29.9" height="6.5"/>
  <path d="M2055.9,1832.2c-17.3,0-31.5-14.1-31.5-31.5s14.1-31.5,31.5-31.5,31.5,14.1,31.5,31.5-14.1,31.5-31.5,31.5ZM2055.9,1778.3c-12.4,0-22.5,10.1-22.5,22.5s10.1,22.5,22.5,22.5,22.5-10.1,22.5-22.5-10.1-22.5-22.5-22.5Z"/>
  <rect x="2041.1" y="1798.4" width="29.9" height="6.5"/>
  <circle cx="1742.1" cy="1890" r="32.6"/>
  <path d="M1677.7,1876.2h141.6v12.1c0,6.7-5.5,12.2-12.2,12.2h-140.5v-13.2c0-6.1,5-11.1,11.1-11.1h0Z"/>
  <path class="st0" d="M1505.2,1804c-1.1,0-1.7-.4-1.7-1.2s.8-1.5,2.3-1.7l2.3-.4c1.7-.2,2.9-.7,3.6-1.3.7-.6,1.2-1.8,1.5-3.5l16-73c.4-1.7.4-2.9,0-3.5s-1.4-1-2.9-1.4l-2.3-.5c-1-.2-1.5-.7-1.5-1.4,0-1,.7-1.5,2.1-1.5h21.3c1.2,0,1.7.5,1.4,1.5-.2.7-.7,1.2-1.5,1.4l-3.3.5c-1.7.2-2.9.7-3.5,1.4-.6.7-1.1,1.9-1.5,3.6l-15.3,69.5c-.6,3-.2,5.1,1.2,6.5,1.4,1.3,3.4,2,6.1,2s6-1.2,9.2-3.6,5.7-6.2,7.8-11.3l3.5-8.7c.4-1.1,1-1.6,1.9-1.6s1.6.7,1.2,2.1l-6.6,23.3c-.5,1.9-1.7,2.9-3.5,2.9h-37.7Z"/>
  <path class="st0" d="M1553.9,1804c-1.1,0-1.7-.4-1.7-1.2s.8-1.5,2.3-1.7l2.3-.4c1.7-.2,2.9-.7,3.6-1.3.7-.6,1.2-1.8,1.5-3.5l16-73c.4-1.7.4-2.9,0-3.5s-1.4-1-2.9-1.4l-2.3-.5c-1-.2-1.5-.7-1.5-1.4,0-1,.7-1.5,2.1-1.5h39.3c2,0,2.9.9,2.5,2.9l-3.7,20.6c-.2,1.4-.9,2.1-1.9,2.1s-1.6-.5-1.4-1.6l.3-4.3c.4-4.2,0-7.5-1-9.9s-2.6-4.1-4.7-5.1-4.5-1.5-7.2-1.5-5.4.5-6.8,1.4c-1.4.9-2.4,2.6-2.9,5l-6.5,29.9c-.2,1.2.2,1.7,1.3,1.7h6c3.4,0,6-1.9,7.5-5.8l2.6-6.2c.4-1.1,1-1.6,1.9-1.6s.8.2,1.1.6c.3.4.3.9.2,1.6l-6.1,27.9c-.4,1.4-1.1,2.1-2,2.1s-1.4-.5-1.4-1.6v-6.1c.2-2.9-.1-4.8-.9-5.7-.8-.9-2-1.4-3.8-1.4h-5.9c-1.2,0-1.9.6-2.1,1.7l-6.8,31.2c-.6,3-.3,5.1.8,6.5,1.2,1.3,3.7,2,7.5,2s4.7-.4,7-1.2,4.5-2.3,6.6-4.5,4-5.5,5.7-9.7l2.8-6.9c.4-1.1,1-1.6,1.9-1.6s1.6.7,1.2,2.1l-6,22.1c-.5,1.9-1.7,2.9-3.5,2.9h-41,0Z"/>
  <path class="st0" d="M1617.6,1804c-1.1,0-1.7-.4-1.7-1.2s.6-1.4,1.9-1.6l4.9-.9c1.6-.2,2.8-.7,3.5-1.3s1.3-1.8,1.7-3.5l16.4-74.5c.2-1.2.1-2-.3-2.5-.4-.5-1.4-.8-2.9-.8-2.7,0-5.6,1.1-8.8,3.4-3.2,2.3-6,6.5-8.5,12.7l-1.9,4.7c-.4,1.1-1.1,1.6-2,1.6s-1.4-.7-1.1-2.1l5.9-22.5c.5-1.9,1.3-2.8,2.6-2.8s1.3.2,1.7.4c.4.3,1.2.6,2.2.9,1,.3,2.8.5,5.3.5h26.2c2.5,0,4.4-.2,5.6-.5,1.2-.3,2.1-.6,2.7-.9s1.1-.4,1.6-.4c1.3,0,1.8.9,1.4,2.8l-3.8,22.5c-.2,1.4-.9,2.1-2,2.1s-1.4-.5-1.3-1.6l.2-3.1c.5-6.1-.3-10.6-2.2-13.5s-4.7-4.3-8.2-4.3-2.5.2-3.1.8-1,1.3-1.2,2.5l-16.4,74.5c-.4,1.7-.3,2.9.2,3.5s1.5,1.1,3,1.3l5.5.9c.9,0,1.3.5,1.3,1.4s-.6,1.5-1.9,1.5h-26.6Z"/>
  <path class="st0" d="M1688.2,1743.2c-1.2,0-1.6-.8-1.2-2.4.6-2.7.8-5,.9-6.8s0-3.6-.1-5.5-.2-4.2-.2-6.9.5-4.4,1.5-6,2.6-2.4,4.7-2.4,2.7.5,3.5,1.5c.8,1,1.1,2.3,1.1,4s-.5,3.9-1.5,5.7-2.2,4-3.5,6.6c-1.3,2.6-2.6,6-3.7,10.3-.2,1.2-.8,1.9-1.5,1.9h0Z"/>
  <path class="st0" d="M1715.7,1805.2c-2.2,0-4.5-.2-7-.8s-4.8-1.2-6.9-2.1c-2.2-.9-3.9-1.9-5.1-3-.4-.4-.7-.8-.8-1.2s0-1,0-1.9l3.3-19.5c.2-1.5.9-2.2,1.9-2.2s1.4.8,1.4,2.5v4.8c.3,6.9,1.4,12,3.5,15s5.6,4.6,10.4,4.6,8-1.7,10.9-5c2.9-3.3,4.4-7.8,4.4-13.5s-.9-7.4-2.8-11.4-4.5-7.9-7.9-11.9c-4-4.7-7-9-8.9-12.9s-2.9-8-2.9-12.3.8-6.7,2.3-9.9c1.6-3.2,3.9-5.8,7.1-7.9,3.2-2.1,7.2-3.2,12.2-3.2s12,1.6,15.7,4.8c1.1.9,1.5,2.3,1.2,4.1l-3.3,18.1c-.2,1.2-.8,1.9-1.7,1.9s-1.4-.7-1.5-2.1v-2.6c-.4-6.7-1.3-11.8-2.8-15.3-1.4-3.5-4.3-5.3-8.7-5.3s-5.7.7-7.5,2.2-3.3,3.3-4.1,5.5c-.9,2.2-1.3,4.4-1.3,6.5s.3,4.7.9,6.9c.6,2.2,1.7,4.5,3.2,6.9s3.6,5.4,6.3,8.9c3.8,4.7,6.7,9.2,8.8,13.5s3.2,8.5,3.2,12.5-1,9.2-3.1,13c-2.1,3.8-4.9,6.7-8.4,8.9s-7.6,3.2-12.1,3.2h0Z"/>
  <path class="st0" d="M1772.9,1804c-1.1,0-1.7-.4-1.7-1.2s.6-1.4,1.9-1.6l4.9-.9c1.6-.2,2.8-.7,3.5-1.3s1.3-1.8,1.7-3.5l16.4-74.5c.2-1.2.1-2-.3-2.5-.4-.5-1.4-.8-2.9-.8-2.7,0-5.6,1.1-8.8,3.4-3.2,2.3-6,6.5-8.5,12.7l-1.9,4.7c-.4,1.1-1.1,1.6-2,1.6s-1.4-.7-1.1-2.1l5.9-22.5c.5-1.9,1.3-2.8,2.6-2.8s1.3.2,1.7.4c.4.3,1.2.6,2.2.9,1,.3,2.8.5,5.3.5h26.2c2.5,0,4.4-.2,5.6-.5,1.2-.3,2.1-.6,2.7-.9s1.1-.4,1.6-.4c1.3,0,1.8.9,1.4,2.8l-3.8,22.5c-.2,1.4-.9,2.1-2,2.1s-1.4-.5-1.3-1.6l.2-3.1c.5-6.1-.3-10.6-2.2-13.5s-4.7-4.3-8.2-4.3-2.5.2-3.1.8-1,1.3-1.2,2.5l-16.4,74.5c-.4,1.7-.3,2.9.2,3.5s1.5,1.1,3,1.3l5.5.9c.9,0,1.3.5,1.3,1.4s-.6,1.5-1.9,1.5h-26.6Z"/>
  <path class="st0" d="M1807.3,1804c-.9,0-1.4-.4-1.4-1.2s.6-1.3,1.9-1.6l1.9-.4c1.6-.3,2.9-1.1,4.1-2.4s2.2-3.1,3.2-5.4l35.2-77.6c.4-.8.8-1.4,1.2-1.6.4-.2.7-.4,1.1-.4s.7.1,1,.4c.3.2.4.8.4,1.6l1.3,78.7c0,2.3.3,3.9.8,4.8s1.4,1.5,2.9,1.9l1.5.4c.9.2,1.4.8,1.4,1.5s-.7,1.4-2,1.4h-19.4c-1,0-1.5-.4-1.5-1.2s.8-1.4,2.3-1.6l2.3-.2c1.3-.2,2.2-.6,2.8-1.4.5-.8.8-2,.8-3.8l-.2-19.2c0-2.2-1.1-3.2-3.2-3.2h-12.6c-2,0-3.6,1.1-4.6,3.2l-7.7,16.6c-2.1,4.7-1.4,7.3,2.1,7.8l1.7.2c1.2.2,1.8.7,1.8,1.5s-.7,1.4-2,1.4h-17.1,0ZM1833.6,1769.5h13.2c1.3,0,2-.7,2-2.1l-.2-33.9h-.6l-15.4,33.9c-.3.6-.3,1.1-.1,1.5.2.4.6.6,1.2.6h0Z"/>
  <path class="st0" d="M1863.9,1804c-1.1,0-1.7-.4-1.7-1.2s.8-1.5,2.3-1.7l2.3-.4c1.7-.2,2.9-.7,3.6-1.3.7-.6,1.2-1.8,1.5-3.5l16-73c.4-1.7.4-2.9,0-3.5s-1.4-1-2.9-1.4l-2.3-.5c-1-.2-1.5-.7-1.5-1.4,0-1,.7-1.5,2.1-1.5h21.3c1.2,0,1.7.5,1.4,1.5-.2.7-.7,1.2-1.5,1.4l-3.3.5c-1.7.2-2.9.7-3.5,1.4-.6.7-1.1,1.9-1.5,3.6l-15.3,69.5c-.6,3-.2,5.1,1.2,6.5,1.4,1.3,3.4,2,6.1,2s6-1.2,9.2-3.6,5.7-6.2,7.8-11.3l3.5-8.7c.4-1.1,1-1.6,1.9-1.6s1.6.7,1.2,2.1l-6.6,23.3c-.5,1.9-1.7,2.9-3.5,2.9h-37.7Z"/>
  <path class="st0" d="M1912.7,1804c-1.1,0-1.7-.4-1.7-1.2s.8-1.5,2.3-1.7l2.3-.4c1.7-.2,2.9-.7,3.6-1.3.7-.6,1.2-1.8,1.5-3.5l16-73c.4-1.7.4-2.9,0-3.5s-1.4-1-2.9-1.4l-2.3-.5c-1-.2-1.5-.7-1.5-1.4,0-1,.7-1.5,2.1-1.5h21.1c1.2,0,1.8.5,1.8,1.4s-.6,1.4-1.9,1.6l-3.1.4c-1.7.2-2.9.6-3.5,1.3-.6.7-1.1,1.9-1.5,3.7l-7.4,33.8c-.2.7,0,1.1.3,1.4.3.2.8,0,1.2-.5l26.7-32.4c3.4-4.2,3.7-6.6.8-7.2l-2.2-.5c-1.1-.2-1.7-.8-1.7-1.5s.6-1.4,1.9-1.4h20.1c1.1,0,1.7.4,1.7,1.2s-.6,1.5-1.9,1.6l-2.3.2c-2.4.2-4.6,1-6.4,2.2-1.8,1.2-4,3.5-6.7,6.7l-18.5,22.2c-.9,1.3-1.2,2.7-.8,4l12.6,43.8c.4,1.3.8,2.3,1.3,2.9s1.2.9,2.1,1.1l2.5.5c.9.2,1.4.7,1.4,1.4,0,1-.7,1.5-2,1.5h-19.7c-1.1,0-1.7-.4-1.7-1.2s.6-1.4,1.9-1.6l2.1-.2c3.1-.4,4.1-2.4,3.2-6.1l-9.5-34.6c-.2-.7-.5-1-.9-1.1-.5,0-.9.1-1.3.6l-4.5,5.3c-.8.9-1.4,1.9-1.9,2.9s-.9,2.1-1.2,3.3l-5.3,24.5c-.3,1.7-.3,2.9,0,3.6.3.7,1.3,1.1,2.9,1.4l2.8.5c.9,0,1.3.5,1.3,1.4s-.7,1.5-2.1,1.5h-21.2,0Z"/>
</svg>