<?xml version="1.0" encoding="UTF-8"?>
<svg id="Capa_1" xmlns="http://www.w3.org/2000/svg" version="1.1" viewBox="0 0 3764.5 2117.5">
  <!-- Generator: Adobe Illustrator 29.0.0, SVG Export Plug-In . SVG Version: 2.1.0 Build 186)  -->
  <defs>
    <style>
      .st0 {
        stroke: #000;
        stroke-miterlimit: 10;
        stroke-width: 3px;
      }
    </style>
  </defs>
  <path d="M1012.7,1497.4c-114.4,0-222-20-303-56.2-82.2-36.8-127.4-86.1-127.4-138.9s45.2-102.1,127.4-138.9c81-36.2,188.6-56.2,303-56.2s222,20,303,56.2c82.2,36.8,127.4,86.1,127.4,138.9s-45.2,102.1-127.4,138.9c-81,36.2-188.6,56.2-303,56.2h0ZM1012.7,1116.2c-113.1,0-219.4,19.7-299.3,55.4-38.6,17.3-68.8,37.3-89.8,59.6-21.4,22.6-32.2,46.6-32.2,71.1s10.8,48.5,32.2,71.1c21,22.3,51.3,42.3,89.8,59.6,79.9,35.8,186.2,55.4,299.3,55.4s219.4-19.7,299.3-55.4c38.6-17.3,68.8-37.3,89.8-59.6,21.4-22.6,32.2-46.6,32.2-71.1s-10.8-48.5-32.2-71.1c-21-22.3-51.3-42.3-89.8-59.6-79.9-35.8-186.2-55.4-299.3-55.4Z"/>
  <path d="M1011.4,1472.2c-106.1,0-206-17.2-281.1-48.4-76.4-31.7-118.5-74.4-118.5-120.2s42.1-88.5,118.5-120.2c75.2-31.2,175-48.4,281.1-48.4s206,17.2,281.1,48.4c76.4,31.7,118.5,74.4,118.5,120.2s-42.1,88.5-118.5,120.2c-75.2,31.2-175,48.4-281.1,48.4h0ZM1011.4,1144c-105,0-203.6,16.9-277.7,47.7-35.8,14.8-63.8,32.1-83.2,51.2-19.7,19.3-29.7,39.8-29.7,60.7s10,41.3,29.7,60.7c19.5,19.1,47.5,36.4,83.2,51.2,74.1,30.8,172.7,47.7,277.7,47.7s203.6-16.9,277.7-47.7c35.8-14.8,63.8-32.1,83.2-51.2,19.7-19.3,29.7-39.8,29.7-60.7s-10-41.3-29.7-60.7c-19.5-19.1-47.5-36.4-83.2-51.2-74.1-30.8-172.7-47.7-277.7-47.7Z"/>
  <path d="M690.4,1346.2c-17.3,0-31.5-14.1-31.5-31.5s14.1-31.5,31.5-31.5,31.5,14.1,31.5,31.5-14.1,31.5-31.5,31.5ZM690.4,1292.2c-12.4,0-22.5,10.1-22.5,22.5s10.1,22.5,22.5,22.5,22.5-10.1,22.5-22.5-10.1-22.5-22.5-22.5Z"/>
  <rect x="675.5" y="1312.3" width="29.9" height="6.5"/>
  <path d="M1325.2,1347.1c-17.3,0-31.5-14.1-31.5-31.5s14.1-31.5,31.5-31.5,31.5,14.1,31.5,31.5-14.1,31.5-31.5,31.5ZM1325.2,1293.1c-12.4,0-22.5,10.1-22.5,22.5s10.1,22.5,22.5,22.5,22.5-10.1,22.5-22.5-10.1-22.5-22.5-22.5Z"/>
  <rect x="1310.3" y="1313.2" width="29.9" height="6.5"/>
  <circle cx="1011.4" cy="1404.8" r="32.6"/>
  <path d="M947,1391h141.6v12.1c0,6.7-5.5,12.2-12.2,12.2h-140.5v-13.2c0-6.1,5-11.1,11.1-11.1h0Z"/>
  <path class="st0" d="M790,1322.5c-1.1,0-1.7-.4-1.7-1.2s.8-1.5,2.3-1.7l2.3-.4c1.7-.2,2.9-.7,3.6-1.3.7-.6,1.2-1.8,1.5-3.5l16-73c.3-1.4.3-2.5.1-3.2-.2-.8-1.3-1.3-3.1-1.6l-2.3-.5c-1-.2-1.5-.7-1.5-1.4,0-1,.7-1.5,2.1-1.5h23c6.5,0,11.5,1.9,15,5.6,3.5,3.7,5.2,8.4,5.2,14s-1.3,10-3.8,14.5c-2.5,4.4-6.1,8-10.6,10.7s-9.8,4.1-15.8,4.1h-6.9c-1.3,0-2.1.7-2.5,2.1l-6.6,29.7c-.4,1.8-.3,3.1.3,3.7.6.7,1.9,1.1,3.8,1.4l5.7.8c.7,0,1.1.5,1.1,1.2,0,1.1-.7,1.6-2.1,1.6h-25ZM815.6,1272.1c-.5,2.2-.3,3.8.7,5,.9,1.2,2.8,1.8,5.7,1.8s7.3-.9,10.1-2.6c2.8-1.7,5.1-4,6.8-6.8,1.8-2.8,3.1-5.8,3.9-8.9s1.2-6.2,1.2-9.1c0-4.6-1.1-8.2-3.4-11.1-2.3-2.8-5.6-4.2-10-4.2s-7.5,1.7-8.2,5l-6.7,30.9h0Z"/>
  <path class="st0" d="M895.1,1323.6c-3.3,0-6-1.2-8.1-3.7s-3.1-6-3-10.4v-13.8c.2-4.5,0-7.9-.6-10.2-.5-2.3-1.6-3.9-3.1-4.7s-3.7-1.2-6.6-1.2-3,.3-3.8,1c-.8.7-1.4,1.7-1.7,3.1l-6.8,30.2c-.4,1.7-.3,2.9.1,3.6s1.7,1.2,3.7,1.5l5.2.8c1.1,0,1.7.5,1.7,1.4s-.6,1.5-1.9,1.5h-25c-1.1,0-1.7-.4-1.7-1.2s.8-1.5,2.3-1.7l2.3-.4c1.7-.2,2.9-.7,3.6-1.3.7-.6,1.2-1.8,1.5-3.5l16-73c.4-1.7.4-2.9,0-3.5s-1.4-1-2.9-1.4l-2.3-.5c-1-.2-1.5-.7-1.5-1.4,0-1,.7-1.5,2.1-1.5h23.9c4.6,0,8.5.9,11.5,2.6s5.4,4.1,6.9,6.9c1.5,2.9,2.3,6.1,2.3,9.6s-1.1,8.4-3.2,11.9-4.9,6.6-8.3,9c-3.4,2.4-7.1,4.2-11,5.4-.5,0-.7.3-.8.7,0,.4.2.7.7.9,2.2,1.2,3.7,3,4.5,5.2.8,2.2,1.2,5.2,1.2,8.9v12.7c0,4.6.5,7.7,1.4,9.4.9,1.7,2.2,2.5,3.9,2.5s1.2,0,1.7-.3c.5-.2,1.1-.6,1.9-1.2.6-.6,1.2-.8,1.7-.5s.8.7.8,1.4c0,1.2-.8,2.3-2.5,3.5-1.7,1.2-3.7,1.8-6,1.8h0ZM877.9,1276.4c3.9,0,7.6-1.1,11.1-3.3s6.3-5.2,8.4-9.1,3.2-8.1,3.2-12.8-1.1-8.3-3.2-11-5.9-4-11.2-4-7.9,1.7-8.7,5l-6.2,28.4c-1,4.6,1.2,6.8,6.7,6.8h0Z"/>
  <path class="st0" d="M933,1323.6c-6.1,0-11-2.7-14.5-7.9-3.6-5.3-5.4-13.1-5.4-23.3s.7-12.1,2-18,3.2-11.4,5.5-16.4,5.1-9.6,8.2-13.5,6.4-7,10-9.2c3.6-2.2,7.2-3.3,11-3.3,6.1,0,11,2.6,14.5,7.9,3.6,5.3,5.4,13.1,5.4,23.4s-.7,12.1-2,18c-1.3,5.9-3.2,11.4-5.5,16.4-2.3,5.1-5.1,9.6-8.2,13.5s-6.4,7-10,9.2c-3.6,2.2-7.2,3.3-11,3.3h0ZM932.8,1320.4c2.9,0,5.8-1.2,8.5-3.7,2.8-2.4,5.4-5.8,7.9-10.1,2.5-4.3,4.7-9.2,6.5-14.8,1.9-5.6,3.3-11.5,4.4-17.8s1.6-12.7,1.6-19.1c0-13.2-3.9-19.9-11.7-19.9s-5.8,1.2-8.5,3.7c-2.8,2.4-5.4,5.8-7.9,10.1-2.5,4.3-4.7,9.2-6.5,14.8-1.9,5.6-3.3,11.5-4.4,17.8-1.1,6.3-1.6,12.7-1.6,19.1,0,13.2,3.9,19.9,11.7,19.9Z"/>
  <path class="st0" d="M959.9,1349.2c-2.2,0-4-.6-5.4-1.9-1.4-1.2-2.1-2.9-2.1-4.8s.5-3.2,1.4-4.5,2.2-2,3.9-2,2.4.4,2.9,1.2.9,1.8,1.1,2.9c.2,1.1.5,2,.8,2.8.3.8,1,1.2,2.1,1.2,1.5,0,2.8-.9,4.1-2.7,1.2-1.8,2.2-4.4,2.9-7.7l20.2-92.5c.4-1.7.4-2.9,0-3.5s-1.4-1-2.9-1.4l-2.3-.5c-1-.2-1.5-.7-1.5-1.4,0-1,.7-1.5,2.1-1.5h21c1.1,0,1.7.4,1.7,1.2s-.8,1.5-2.3,1.7l-2.3.4c-1.7.2-2.9.7-3.5,1.3s-1.1,1.8-1.5,3.5l-16.6,75.7c-2.2,9.9-5.4,17.8-9.6,23.5-4.2,5.8-8.8,8.6-14,8.6h0Z"/>
  <path class="st0" d="M997.3,1322.5c-1.1,0-1.7-.4-1.7-1.2s.8-1.5,2.3-1.7l2.3-.4c1.7-.2,2.9-.7,3.6-1.3.7-.6,1.2-1.8,1.5-3.5l16-73c.4-1.7.4-2.9,0-3.5s-1.4-1-2.9-1.4l-2.3-.5c-1-.2-1.5-.7-1.5-1.4,0-1,.7-1.5,2.1-1.5h39.3c2,0,2.9.9,2.5,2.9l-3.7,20.6c-.2,1.4-.9,2.1-1.9,2.1s-1.6-.5-1.4-1.6l.3-4.3c.4-4.2,0-7.5-1-9.9s-2.6-4.1-4.7-5.1-4.5-1.5-7.2-1.5-5.4.5-6.8,1.4c-1.4.9-2.4,2.6-2.9,5l-6.5,29.9c-.2,1.2.2,1.7,1.3,1.7h6c3.4,0,6-1.9,7.5-5.8l2.6-6.2c.4-1.1,1-1.6,1.9-1.6s.8.2,1.1.6c.3.4.3.9.2,1.6l-6.1,27.9c-.4,1.4-1.1,2.1-2,2.1s-1.4-.5-1.4-1.6v-6.1c.2-2.9-.1-4.8-.9-5.7-.8-.9-2-1.4-3.8-1.4h-5.9c-1.2,0-1.9.6-2.1,1.7l-6.8,31.2c-.6,3-.3,5.1.8,6.5,1.2,1.3,3.7,2,7.5,2s4.7-.4,7-1.2,4.5-2.3,6.6-4.5,4-5.5,5.7-9.7l2.8-6.9c.4-1.1,1-1.6,1.9-1.6s1.6.7,1.2,2.1l-6,22.1c-.5,1.9-1.7,2.9-3.5,2.9h-41,0Z"/>
  <path class="st0" d="M1083.5,1323.6c-8.3,0-14.3-2.8-18.1-8.3-3.7-5.5-5.6-13.6-5.6-24.1s.6-10.3,1.8-15.8c1.2-5.5,2.9-10.8,5.1-15.9,2.2-5.2,4.9-9.8,8.1-14s6.7-7.4,10.7-9.9c4-2.5,8.3-3.7,12.9-3.7s10.5,1.9,14.9,5.8c.8.7,1.1,1.6.8,2.7l-3.5,18.8c-.2,1.3-.8,2-1.8,2s-1.4-.7-1.4-2v-4.8c-.3-6.9-1.2-11.8-2.9-14.7-1.7-2.9-4.2-4.3-7.4-4.3s-6,1.3-8.8,3.9-5.5,6.1-7.9,10.4c-2.4,4.3-4.6,9.2-6.4,14.4-1.8,5.3-3.3,10.5-4.3,15.8-1,5.3-1.5,10.2-1.5,14.8,0,7.4,1.1,13.5,3.2,18.2s5.8,7.1,10.8,7.1,5.6-1.1,7.9-3.4c2.3-2.3,4.7-6.2,7.1-11.7l2.6-5.8c.4-1,1-1.5,1.8-1.5,1.2,0,1.7.8,1.3,2.4l-4.7,19.4c-.3,1.2-.9,2-1.9,2.2-1.3.5-3.3,1-5.8,1.4-2.5.4-4.8.7-6.9.7h0Z"/>
  <path class="st0" d="M1116.9,1322.5c-1.1,0-1.7-.4-1.7-1.2s.6-1.4,1.9-1.6l4.9-.9c1.6-.2,2.8-.7,3.5-1.3s1.3-1.8,1.7-3.5l16.4-74.5c.2-1.2.1-2-.3-2.5-.4-.5-1.4-.8-2.9-.8-2.7,0-5.6,1.1-8.8,3.4-3.2,2.3-6,6.5-8.5,12.7l-1.9,4.7c-.4,1.1-1.1,1.6-2,1.6s-1.4-.7-1.1-2.1l5.9-22.5c.5-1.9,1.3-2.8,2.6-2.8s1.3.2,1.7.4c.4.3,1.2.6,2.2.9,1,.3,2.8.5,5.3.5h26.2c2.5,0,4.4-.2,5.6-.5,1.2-.3,2.1-.6,2.7-.9s1.1-.4,1.6-.4c1.3,0,1.8.9,1.4,2.8l-3.8,22.5c-.2,1.4-.9,2.1-2,2.1s-1.4-.5-1.3-1.6l.2-3.1c.5-6.1-.3-10.6-2.2-13.5s-4.7-4.3-8.2-4.3-2.5.2-3.1.8-1,1.3-1.2,2.5l-16.4,74.5c-.4,1.7-.3,2.9.2,3.5s1.5,1.1,3,1.3l5.5.9c.9,0,1.3.5,1.3,1.4s-.6,1.5-1.9,1.5h-26.6Z"/>
  <path class="st0" d="M1183.9,1323.6c-2.2,0-4.5-.2-7-.8s-4.8-1.2-6.9-2.1c-2.2-.9-3.9-1.9-5.1-3-.4-.4-.7-.8-.8-1.2s0-1,0-1.9l3.3-19.5c.2-1.5.9-2.2,1.9-2.2s1.4.8,1.4,2.5v4.8c.3,6.9,1.4,12,3.5,15s5.6,4.6,10.4,4.6,8-1.7,10.9-5c2.9-3.3,4.4-7.8,4.4-13.5s-.9-7.4-2.8-11.4c-1.9-4-4.5-7.9-7.9-11.9-4-4.7-7-9-8.9-12.9-1.9-3.9-2.9-8-2.9-12.3s.8-6.7,2.3-9.9c1.6-3.2,3.9-5.8,7.1-7.9s7.2-3.2,12.2-3.2,12,1.6,15.7,4.8c1.1.9,1.5,2.3,1.2,4.1l-3.3,18.1c-.2,1.2-.8,1.9-1.7,1.9s-1.4-.7-1.5-2.1v-2.6c-.4-6.7-1.3-11.8-2.8-15.3-1.4-3.5-4.3-5.3-8.7-5.3s-5.7.7-7.5,2.2-3.3,3.3-4.1,5.5c-.9,2.2-1.3,4.4-1.3,6.5s.3,4.7.9,6.9c.6,2.2,1.7,4.5,3.2,6.9s3.6,5.4,6.3,8.9c3.8,4.7,6.7,9.2,8.8,13.5s3.2,8.5,3.2,12.5-1,9.2-3.1,13c-2.1,3.8-4.9,6.7-8.4,8.9s-7.6,3.2-12.1,3.2h0Z"/>
</svg>